<mxfile host="app.diagrams.net" modified="2023-12-20T14:52:46.105Z" agent="Mozilla/5.0 (Windows NT 10.0; Win64; x64) AppleWebKit/537.36 (KHTML, like Gecko) Chrome/120.0.0.0 Safari/537.36" etag="hcwdmOjkye0LC87WNIWR" version="22.1.11" type="github">
  <diagram name="Side-1" id="tLaiV5uY0D4X-mCOoy-S">
    <mxGraphModel dx="1434" dy="1941" grid="0" gridSize="10" guides="1" tooltips="1" connect="1" arrows="1" fold="1" page="1" pageScale="1" pageWidth="827" pageHeight="1169" math="0" shadow="0">
      <root>
        <mxCell id="0" />
        <mxCell id="1" parent="0" />
        <mxCell id="eVYh1uiRroW0jwpEOYDS-53" value="" style="ellipse;html=1;shape=startState;fillColor=#000000;strokeColor=#ff0000;fontFamily=Helvetica;fontSize=11;fontColor=default;" parent="1" vertex="1">
          <mxGeometry x="375" y="-1129" width="30" height="30" as="geometry" />
        </mxCell>
        <mxCell id="eVYh1uiRroW0jwpEOYDS-54" value="" style="edgeStyle=orthogonalEdgeStyle;html=1;verticalAlign=bottom;endArrow=open;endSize=8;strokeColor=#ff0000;rounded=0;labelBackgroundColor=default;align=center;fontFamily=Helvetica;fontSize=11;fontColor=default;shape=connector;" parent="1" source="eVYh1uiRroW0jwpEOYDS-53" target="eVYh1uiRroW0jwpEOYDS-56" edge="1">
          <mxGeometry relative="1" as="geometry">
            <mxPoint x="390" y="-1063" as="targetPoint" />
          </mxGeometry>
        </mxCell>
        <mxCell id="eVYh1uiRroW0jwpEOYDS-64" style="shape=connector;rounded=0;orthogonalLoop=1;jettySize=auto;html=1;labelBackgroundColor=default;strokeColor=#ff0000;align=center;verticalAlign=bottom;fontFamily=Helvetica;fontSize=11;fontColor=default;endArrow=open;endSize=8;" parent="1" source="eVYh1uiRroW0jwpEOYDS-56" target="eVYh1uiRroW0jwpEOYDS-58" edge="1">
          <mxGeometry relative="1" as="geometry" />
        </mxCell>
        <mxCell id="eVYh1uiRroW0jwpEOYDS-56" value="Display public timeline" style="rounded=1;whiteSpace=wrap;html=1;arcSize=40;fontColor=#000000;fillColor=#ffffc0;strokeColor=#ff0000;fontFamily=Helvetica;fontSize=11;" parent="1" vertex="1">
          <mxGeometry x="330" y="-1050" width="120" height="36" as="geometry" />
        </mxCell>
        <mxCell id="eVYh1uiRroW0jwpEOYDS-73" style="edgeStyle=none;shape=connector;rounded=0;orthogonalLoop=1;jettySize=auto;html=1;entryX=0.5;entryY=0;entryDx=0;entryDy=0;labelBackgroundColor=default;strokeColor=#ff0000;align=center;verticalAlign=bottom;fontFamily=Helvetica;fontSize=11;fontColor=default;endArrow=open;endSize=8;" parent="1" source="eVYh1uiRroW0jwpEOYDS-58" target="eVYh1uiRroW0jwpEOYDS-70" edge="1">
          <mxGeometry relative="1" as="geometry" />
        </mxCell>
        <mxCell id="1aLMc1D5CUlpqfS6yJl3-1" style="edgeStyle=orthogonalEdgeStyle;rounded=0;orthogonalLoop=1;jettySize=auto;html=1;endArrow=open;verticalAlign=bottom;strokeColor=#ff0000;endSize=8;" edge="1" parent="1" source="eVYh1uiRroW0jwpEOYDS-58" target="eVYh1uiRroW0jwpEOYDS-60">
          <mxGeometry relative="1" as="geometry" />
        </mxCell>
        <mxCell id="eVYh1uiRroW0jwpEOYDS-58" value="Login" style="rounded=1;whiteSpace=wrap;html=1;arcSize=40;fontColor=#000000;fillColor=#ffffc0;strokeColor=#ff0000;fontFamily=Helvetica;fontSize=11;" parent="1" vertex="1">
          <mxGeometry x="210" y="-937" width="120" height="40" as="geometry" />
        </mxCell>
        <mxCell id="eVYh1uiRroW0jwpEOYDS-75" style="edgeStyle=none;shape=connector;rounded=0;orthogonalLoop=1;jettySize=auto;html=1;labelBackgroundColor=default;strokeColor=#ff0000;align=center;verticalAlign=bottom;fontFamily=Helvetica;fontSize=11;fontColor=default;endArrow=open;endSize=8;" parent="1" source="eVYh1uiRroW0jwpEOYDS-60" target="eVYh1uiRroW0jwpEOYDS-67" edge="1">
          <mxGeometry relative="1" as="geometry" />
        </mxCell>
        <mxCell id="eVYh1uiRroW0jwpEOYDS-60" value="Register" style="rounded=1;whiteSpace=wrap;html=1;arcSize=40;fontColor=#000000;fillColor=#ffffc0;strokeColor=#ff0000;fontFamily=Helvetica;fontSize=11;" parent="1" vertex="1">
          <mxGeometry x="450" y="-937" width="120" height="40" as="geometry" />
        </mxCell>
        <mxCell id="eVYh1uiRroW0jwpEOYDS-66" value="Start" style="text;html=1;align=center;verticalAlign=middle;resizable=0;points=[];autosize=1;strokeColor=none;fillColor=none;fontSize=11;fontFamily=Helvetica;fontColor=default;" parent="1" vertex="1">
          <mxGeometry x="369.5" y="-1157" width="41" height="25" as="geometry" />
        </mxCell>
        <mxCell id="eVYh1uiRroW0jwpEOYDS-79" style="edgeStyle=orthogonalEdgeStyle;shape=connector;rounded=0;orthogonalLoop=1;jettySize=auto;html=1;exitX=1;exitY=0.5;exitDx=0;exitDy=0;labelBackgroundColor=default;strokeColor=#ff0000;align=center;verticalAlign=bottom;fontFamily=Helvetica;fontSize=11;fontColor=default;endArrow=open;endSize=8;" parent="1" source="eVYh1uiRroW0jwpEOYDS-67" target="eVYh1uiRroW0jwpEOYDS-56" edge="1">
          <mxGeometry relative="1" as="geometry">
            <Array as="points">
              <mxPoint x="600" y="-842" />
              <mxPoint x="600" y="-1032" />
            </Array>
          </mxGeometry>
        </mxCell>
        <mxCell id="eVYh1uiRroW0jwpEOYDS-84" value="NO" style="edgeLabel;html=1;align=center;verticalAlign=middle;resizable=0;points=[];fontSize=11;fontFamily=Helvetica;fontColor=default;" parent="eVYh1uiRroW0jwpEOYDS-79" vertex="1" connectable="0">
          <mxGeometry x="-0.5721" y="-2" relative="1" as="geometry">
            <mxPoint as="offset" />
          </mxGeometry>
        </mxCell>
        <mxCell id="eVYh1uiRroW0jwpEOYDS-82" style="edgeStyle=none;shape=connector;rounded=0;orthogonalLoop=1;jettySize=auto;html=1;exitX=0;exitY=1;exitDx=0;exitDy=0;labelBackgroundColor=default;strokeColor=#ff0000;align=center;verticalAlign=bottom;fontFamily=Helvetica;fontSize=11;fontColor=default;endArrow=open;endSize=8;" parent="1" source="eVYh1uiRroW0jwpEOYDS-67" target="eVYh1uiRroW0jwpEOYDS-80" edge="1">
          <mxGeometry relative="1" as="geometry" />
        </mxCell>
        <mxCell id="eVYh1uiRroW0jwpEOYDS-86" value="YES" style="edgeLabel;html=1;align=center;verticalAlign=middle;resizable=0;points=[];fontSize=11;fontFamily=Helvetica;fontColor=default;" parent="eVYh1uiRroW0jwpEOYDS-82" vertex="1" connectable="0">
          <mxGeometry x="-0.2283" y="1" relative="1" as="geometry">
            <mxPoint as="offset" />
          </mxGeometry>
        </mxCell>
        <mxCell id="eVYh1uiRroW0jwpEOYDS-67" value="Success" style="rhombus;whiteSpace=wrap;html=1;fontColor=#000000;fillColor=#ffffc0;strokeColor=#ff0000;fontFamily=Helvetica;fontSize=11;" parent="1" vertex="1">
          <mxGeometry x="470" y="-862" width="80" height="40" as="geometry" />
        </mxCell>
        <mxCell id="eVYh1uiRroW0jwpEOYDS-78" style="edgeStyle=orthogonalEdgeStyle;shape=connector;rounded=0;orthogonalLoop=1;jettySize=auto;html=1;labelBackgroundColor=default;strokeColor=#ff0000;align=center;verticalAlign=bottom;fontFamily=Helvetica;fontSize=11;fontColor=default;endArrow=open;endSize=8;" parent="1" source="eVYh1uiRroW0jwpEOYDS-70" target="eVYh1uiRroW0jwpEOYDS-56" edge="1">
          <mxGeometry relative="1" as="geometry">
            <Array as="points">
              <mxPoint x="179" y="-842" />
              <mxPoint x="179" y="-1032" />
            </Array>
          </mxGeometry>
        </mxCell>
        <mxCell id="eVYh1uiRroW0jwpEOYDS-85" value="NO" style="edgeLabel;html=1;align=center;verticalAlign=middle;resizable=0;points=[];fontSize=11;fontFamily=Helvetica;fontColor=default;" parent="eVYh1uiRroW0jwpEOYDS-78" vertex="1" connectable="0">
          <mxGeometry x="-0.5749" y="-2" relative="1" as="geometry">
            <mxPoint as="offset" />
          </mxGeometry>
        </mxCell>
        <mxCell id="eVYh1uiRroW0jwpEOYDS-83" style="edgeStyle=none;shape=connector;rounded=0;orthogonalLoop=1;jettySize=auto;html=1;exitX=1;exitY=1;exitDx=0;exitDy=0;labelBackgroundColor=default;strokeColor=#ff0000;align=center;verticalAlign=bottom;fontFamily=Helvetica;fontSize=11;fontColor=default;endArrow=open;endSize=8;" parent="1" source="eVYh1uiRroW0jwpEOYDS-70" target="eVYh1uiRroW0jwpEOYDS-80" edge="1">
          <mxGeometry relative="1" as="geometry" />
        </mxCell>
        <mxCell id="eVYh1uiRroW0jwpEOYDS-87" value="YES" style="edgeLabel;html=1;align=center;verticalAlign=middle;resizable=0;points=[];fontSize=11;fontFamily=Helvetica;fontColor=default;" parent="eVYh1uiRroW0jwpEOYDS-83" vertex="1" connectable="0">
          <mxGeometry x="-0.2654" relative="1" as="geometry">
            <mxPoint as="offset" />
          </mxGeometry>
        </mxCell>
        <mxCell id="eVYh1uiRroW0jwpEOYDS-70" value="Success" style="rhombus;whiteSpace=wrap;html=1;fontColor=#000000;fillColor=#ffffc0;strokeColor=#ff0000;fontFamily=Helvetica;fontSize=11;" parent="1" vertex="1">
          <mxGeometry x="230" y="-862" width="80" height="40" as="geometry" />
        </mxCell>
        <mxCell id="eVYh1uiRroW0jwpEOYDS-80" value="Display authenticated public timeline" style="rounded=1;whiteSpace=wrap;html=1;arcSize=40;fontColor=#000000;fillColor=#ffffc0;strokeColor=#ff0000;fontFamily=Helvetica;fontSize=11;" parent="1" vertex="1">
          <mxGeometry x="330" y="-787" width="120" height="40" as="geometry" />
        </mxCell>
        <mxCell id="eVYh1uiRroW0jwpEOYDS-81" value="" style="edgeStyle=orthogonalEdgeStyle;html=1;verticalAlign=bottom;endArrow=open;endSize=8;strokeColor=#ff0000;rounded=0;labelBackgroundColor=default;align=center;fontFamily=Helvetica;fontSize=11;fontColor=default;shape=connector;" parent="1" source="eVYh1uiRroW0jwpEOYDS-80" target="eVYh1uiRroW0jwpEOYDS-88" edge="1">
          <mxGeometry relative="1" as="geometry">
            <mxPoint x="390" y="-687" as="targetPoint" />
          </mxGeometry>
        </mxCell>
        <mxCell id="eVYh1uiRroW0jwpEOYDS-88" value="Write Cheep" style="rounded=1;whiteSpace=wrap;html=1;arcSize=40;fontColor=#000000;fillColor=#ffffc0;strokeColor=#ff0000;fontFamily=Helvetica;fontSize=11;" parent="1" vertex="1">
          <mxGeometry x="330" y="-706" width="120" height="40" as="geometry" />
        </mxCell>
        <mxCell id="eVYh1uiRroW0jwpEOYDS-89" value="" style="edgeStyle=orthogonalEdgeStyle;html=1;verticalAlign=bottom;endArrow=open;endSize=8;strokeColor=#ff0000;rounded=0;labelBackgroundColor=default;align=center;fontFamily=Helvetica;fontSize=11;fontColor=default;shape=connector;" parent="1" source="eVYh1uiRroW0jwpEOYDS-88" target="eVYh1uiRroW0jwpEOYDS-90" edge="1">
          <mxGeometry relative="1" as="geometry">
            <mxPoint x="390" y="-570" as="targetPoint" />
          </mxGeometry>
        </mxCell>
        <mxCell id="eVYh1uiRroW0jwpEOYDS-90" value="Post Cheep" style="rounded=1;whiteSpace=wrap;html=1;arcSize=40;fontColor=#000000;fillColor=#ffffc0;strokeColor=#ff0000;fontFamily=Helvetica;fontSize=11;" parent="1" vertex="1">
          <mxGeometry x="330" y="-634" width="120" height="40" as="geometry" />
        </mxCell>
        <mxCell id="eVYh1uiRroW0jwpEOYDS-91" value="" style="edgeStyle=orthogonalEdgeStyle;html=1;verticalAlign=bottom;endArrow=open;endSize=8;strokeColor=#ff0000;rounded=0;labelBackgroundColor=default;align=center;fontFamily=Helvetica;fontSize=11;fontColor=default;shape=connector;" parent="1" source="eVYh1uiRroW0jwpEOYDS-90" target="eVYh1uiRroW0jwpEOYDS-93" edge="1">
          <mxGeometry relative="1" as="geometry">
            <mxPoint x="390" y="-421" as="targetPoint" />
          </mxGeometry>
        </mxCell>
        <mxCell id="eVYh1uiRroW0jwpEOYDS-93" value="Success" style="rhombus;whiteSpace=wrap;html=1;fontColor=#000000;fillColor=#ffffc0;strokeColor=#ff0000;fontFamily=Helvetica;fontSize=11;" parent="1" vertex="1">
          <mxGeometry x="350" y="-562" width="80" height="40" as="geometry" />
        </mxCell>
        <mxCell id="eVYh1uiRroW0jwpEOYDS-94" value="" style="edgeStyle=orthogonalEdgeStyle;html=1;align=left;verticalAlign=bottom;endArrow=open;endSize=8;strokeColor=#ff0000;rounded=0;labelBackgroundColor=default;fontFamily=Helvetica;fontSize=11;fontColor=default;shape=connector;entryX=1;entryY=0.5;entryDx=0;entryDy=0;" parent="1" source="eVYh1uiRroW0jwpEOYDS-93" target="eVYh1uiRroW0jwpEOYDS-88" edge="1">
          <mxGeometry x="-0.5525" y="-99" relative="1" as="geometry">
            <mxPoint x="530" y="-394" as="targetPoint" />
            <Array as="points">
              <mxPoint x="480" y="-542" />
              <mxPoint x="480" y="-686" />
            </Array>
            <mxPoint x="-1" y="15" as="offset" />
          </mxGeometry>
        </mxCell>
        <mxCell id="eVYh1uiRroW0jwpEOYDS-96" value="NO" style="edgeLabel;html=1;align=center;verticalAlign=middle;resizable=0;points=[];fontSize=11;fontFamily=Helvetica;fontColor=default;" parent="eVYh1uiRroW0jwpEOYDS-94" vertex="1" connectable="0">
          <mxGeometry x="-0.7413" y="-5" relative="1" as="geometry">
            <mxPoint x="-2" y="-5" as="offset" />
          </mxGeometry>
        </mxCell>
        <mxCell id="eVYh1uiRroW0jwpEOYDS-95" value="yes" style="edgeStyle=orthogonalEdgeStyle;html=1;align=left;verticalAlign=top;endArrow=open;endSize=8;strokeColor=#ff0000;rounded=0;labelBackgroundColor=default;fontFamily=Helvetica;fontSize=11;fontColor=default;shape=connector;" parent="1" source="eVYh1uiRroW0jwpEOYDS-93" target="eVYh1uiRroW0jwpEOYDS-99" edge="1">
          <mxGeometry x="-1" relative="1" as="geometry">
            <mxPoint x="390" y="-314" as="targetPoint" />
          </mxGeometry>
        </mxCell>
        <mxCell id="eVYh1uiRroW0jwpEOYDS-98" style="edgeStyle=none;shape=connector;rounded=0;orthogonalLoop=1;jettySize=auto;html=1;labelBackgroundColor=default;strokeColor=#ff0000;align=center;verticalAlign=bottom;fontFamily=Helvetica;fontSize=11;fontColor=default;endArrow=open;endSize=8;exitX=0;exitY=0;exitDx=137;exitDy=83.99999999999999;exitPerimeter=0;entryX=0;entryY=0.5;entryDx=0;entryDy=0;dashed=1;" parent="1" source="eVYh1uiRroW0jwpEOYDS-97" target="eVYh1uiRroW0jwpEOYDS-93" edge="1">
          <mxGeometry relative="1" as="geometry" />
        </mxCell>
        <mxCell id="eVYh1uiRroW0jwpEOYDS-97" value="Restrictions:&amp;nbsp;&lt;br&gt;length &amp;lt;= 160 chars&lt;br&gt;authenticatedAuthor = true" style="shape=callout;whiteSpace=wrap;html=1;perimeter=calloutPerimeter;fontFamily=Helvetica;fontSize=11;fontColor=default;position2=1;" parent="1" vertex="1">
          <mxGeometry x="51" y="-659" width="137" height="84" as="geometry" />
        </mxCell>
        <mxCell id="eVYh1uiRroW0jwpEOYDS-101" style="edgeStyle=orthogonalEdgeStyle;shape=connector;rounded=0;orthogonalLoop=1;jettySize=auto;html=1;labelBackgroundColor=default;strokeColor=#ff0000;align=center;verticalAlign=bottom;fontFamily=Helvetica;fontSize=11;fontColor=default;endArrow=none;endSize=8;endFill=0;" parent="1" source="eVYh1uiRroW0jwpEOYDS-99" target="eVYh1uiRroW0jwpEOYDS-80" edge="1">
          <mxGeometry relative="1" as="geometry">
            <mxPoint x="634" y="-777" as="targetPoint" />
            <Array as="points">
              <mxPoint x="531" y="-438" />
              <mxPoint x="531" y="-767" />
            </Array>
          </mxGeometry>
        </mxCell>
        <mxCell id="eVYh1uiRroW0jwpEOYDS-102" value="Same as Earlier" style="edgeLabel;html=1;align=center;verticalAlign=middle;resizable=0;points=[];fontSize=11;fontFamily=Helvetica;fontColor=default;" parent="eVYh1uiRroW0jwpEOYDS-101" vertex="1" connectable="0">
          <mxGeometry x="-0.3807" y="-2" relative="1" as="geometry">
            <mxPoint as="offset" />
          </mxGeometry>
        </mxCell>
        <mxCell id="eVYh1uiRroW0jwpEOYDS-105" style="edgeStyle=none;shape=connector;rounded=0;orthogonalLoop=1;jettySize=auto;html=1;labelBackgroundColor=default;strokeColor=#ff0000;align=center;verticalAlign=bottom;fontFamily=Helvetica;fontSize=11;fontColor=default;endArrow=open;endSize=8;" parent="1" source="eVYh1uiRroW0jwpEOYDS-99" target="eVYh1uiRroW0jwpEOYDS-103" edge="1">
          <mxGeometry relative="1" as="geometry" />
        </mxCell>
        <mxCell id="eVYh1uiRroW0jwpEOYDS-112" style="edgeStyle=none;shape=connector;rounded=0;orthogonalLoop=1;jettySize=auto;html=1;labelBackgroundColor=default;strokeColor=#ff0000;align=center;verticalAlign=bottom;fontFamily=Helvetica;fontSize=11;fontColor=default;endArrow=none;endSize=8;endFill=0;" parent="1" source="eVYh1uiRroW0jwpEOYDS-99" target="eVYh1uiRroW0jwpEOYDS-110" edge="1">
          <mxGeometry relative="1" as="geometry" />
        </mxCell>
        <mxCell id="eVYh1uiRroW0jwpEOYDS-118" style="edgeStyle=none;shape=connector;rounded=0;orthogonalLoop=1;jettySize=auto;html=1;entryX=0.5;entryY=0;entryDx=0;entryDy=0;labelBackgroundColor=default;strokeColor=#ff0000;align=center;verticalAlign=bottom;fontFamily=Helvetica;fontSize=11;fontColor=default;endArrow=none;endSize=8;endFill=0;" parent="1" source="eVYh1uiRroW0jwpEOYDS-99" target="eVYh1uiRroW0jwpEOYDS-116" edge="1">
          <mxGeometry relative="1" as="geometry" />
        </mxCell>
        <mxCell id="eVYh1uiRroW0jwpEOYDS-121" style="edgeStyle=none;shape=connector;rounded=0;orthogonalLoop=1;jettySize=auto;html=1;entryX=0.5;entryY=0;entryDx=0;entryDy=0;labelBackgroundColor=default;strokeColor=#ff0000;align=center;verticalAlign=bottom;fontFamily=Helvetica;fontSize=11;fontColor=default;endArrow=none;endSize=8;endFill=0;" parent="1" source="eVYh1uiRroW0jwpEOYDS-99" target="eVYh1uiRroW0jwpEOYDS-119" edge="1">
          <mxGeometry relative="1" as="geometry" />
        </mxCell>
        <mxCell id="1aLMc1D5CUlpqfS6yJl3-4" style="rounded=0;orthogonalLoop=1;jettySize=auto;html=1;exitX=1;exitY=0.75;exitDx=0;exitDy=0;endArrow=none;verticalAlign=bottom;strokeColor=#ff0000;endSize=8;endFill=0;" edge="1" parent="1" source="eVYh1uiRroW0jwpEOYDS-99" target="1aLMc1D5CUlpqfS6yJl3-2">
          <mxGeometry relative="1" as="geometry" />
        </mxCell>
        <mxCell id="eVYh1uiRroW0jwpEOYDS-99" value="Display authenticated public timeline" style="rounded=1;whiteSpace=wrap;html=1;arcSize=40;fontColor=#000000;fillColor=#ffffc0;strokeColor=#ff0000;fontFamily=Helvetica;fontSize=11;" parent="1" vertex="1">
          <mxGeometry x="330" y="-458" width="120" height="40" as="geometry" />
        </mxCell>
        <mxCell id="eVYh1uiRroW0jwpEOYDS-108" style="edgeStyle=none;shape=connector;rounded=0;orthogonalLoop=1;jettySize=auto;html=1;labelBackgroundColor=default;strokeColor=#ff0000;align=center;verticalAlign=bottom;fontFamily=Helvetica;fontSize=11;fontColor=default;endArrow=open;endSize=8;" parent="1" source="eVYh1uiRroW0jwpEOYDS-103" target="eVYh1uiRroW0jwpEOYDS-107" edge="1">
          <mxGeometry relative="1" as="geometry" />
        </mxCell>
        <mxCell id="eVYh1uiRroW0jwpEOYDS-103" value="logout" style="rounded=1;whiteSpace=wrap;html=1;arcSize=40;fontColor=#000000;fillColor=#ffffc0;strokeColor=#ff0000;fontFamily=Helvetica;fontSize=11;" parent="1" vertex="1">
          <mxGeometry x="153" y="-363" width="120" height="40" as="geometry" />
        </mxCell>
        <mxCell id="eVYh1uiRroW0jwpEOYDS-107" value="" style="ellipse;html=1;shape=endState;fillColor=#000000;strokeColor=#ff0000;fontFamily=Helvetica;fontSize=11;fontColor=default;" parent="1" vertex="1">
          <mxGeometry x="51" y="-358" width="30" height="30" as="geometry" />
        </mxCell>
        <mxCell id="eVYh1uiRroW0jwpEOYDS-109" value="End" style="text;html=1;align=center;verticalAlign=middle;resizable=0;points=[];autosize=1;strokeColor=none;fillColor=none;fontSize=11;fontFamily=Helvetica;fontColor=default;" parent="1" vertex="1">
          <mxGeometry x="9" y="-355.5" width="38" height="25" as="geometry" />
        </mxCell>
        <mxCell id="eVYh1uiRroW0jwpEOYDS-113" style="edgeStyle=none;shape=connector;rounded=0;orthogonalLoop=1;jettySize=auto;html=1;labelBackgroundColor=default;strokeColor=#ff0000;align=center;verticalAlign=bottom;fontFamily=Helvetica;fontSize=11;fontColor=default;endArrow=open;endSize=8;" parent="1" source="eVYh1uiRroW0jwpEOYDS-110" target="eVYh1uiRroW0jwpEOYDS-103" edge="1">
          <mxGeometry relative="1" as="geometry" />
        </mxCell>
        <mxCell id="eVYh1uiRroW0jwpEOYDS-114" style="edgeStyle=none;shape=connector;rounded=0;orthogonalLoop=1;jettySize=auto;html=1;exitX=0.5;exitY=0;exitDx=0;exitDy=0;entryX=0;entryY=0.5;entryDx=0;entryDy=0;labelBackgroundColor=default;strokeColor=#ff0000;align=center;verticalAlign=bottom;fontFamily=Helvetica;fontSize=11;fontColor=default;endArrow=open;endSize=8;" parent="1" source="eVYh1uiRroW0jwpEOYDS-110" target="eVYh1uiRroW0jwpEOYDS-88" edge="1">
          <mxGeometry relative="1" as="geometry" />
        </mxCell>
        <mxCell id="eVYh1uiRroW0jwpEOYDS-110" value="Display Private Timeline" style="rounded=1;whiteSpace=wrap;html=1;arcSize=40;fontColor=#000000;fillColor=#ffffc0;strokeColor=#ff0000;fontFamily=Helvetica;fontSize=11;" parent="1" vertex="1">
          <mxGeometry x="153" y="-458" width="120" height="40" as="geometry" />
        </mxCell>
        <mxCell id="eVYh1uiRroW0jwpEOYDS-127" value="" style="edgeStyle=none;shape=connector;rounded=0;orthogonalLoop=1;jettySize=auto;html=1;labelBackgroundColor=default;strokeColor=#ff0000;align=center;verticalAlign=bottom;fontFamily=Helvetica;fontSize=11;fontColor=default;endArrow=none;endSize=8;endFill=0;" parent="1" source="eVYh1uiRroW0jwpEOYDS-116" target="eVYh1uiRroW0jwpEOYDS-126" edge="1">
          <mxGeometry relative="1" as="geometry" />
        </mxCell>
        <mxCell id="eVYh1uiRroW0jwpEOYDS-116" value="User Timeline" style="rounded=1;whiteSpace=wrap;html=1;arcSize=40;fontColor=#000000;fillColor=#ffffc0;strokeColor=#ff0000;fontFamily=Helvetica;fontSize=11;" parent="1" vertex="1">
          <mxGeometry x="484.5" y="-310" width="120" height="40" as="geometry" />
        </mxCell>
        <mxCell id="eVYh1uiRroW0jwpEOYDS-124" style="edgeStyle=none;shape=connector;rounded=0;orthogonalLoop=1;jettySize=auto;html=1;labelBackgroundColor=default;strokeColor=#ff0000;align=center;verticalAlign=bottom;fontFamily=Helvetica;fontSize=11;fontColor=default;endArrow=open;endSize=8;" parent="1" source="eVYh1uiRroW0jwpEOYDS-119" target="eVYh1uiRroW0jwpEOYDS-122" edge="1">
          <mxGeometry relative="1" as="geometry" />
        </mxCell>
        <mxCell id="eVYh1uiRroW0jwpEOYDS-119" value="User Page" style="rounded=1;whiteSpace=wrap;html=1;arcSize=40;fontColor=#000000;fillColor=#ffffc0;strokeColor=#ff0000;fontFamily=Helvetica;fontSize=11;" parent="1" vertex="1">
          <mxGeometry x="330" y="-363" width="120" height="40" as="geometry" />
        </mxCell>
        <mxCell id="eVYh1uiRroW0jwpEOYDS-125" style="edgeStyle=none;shape=connector;rounded=0;orthogonalLoop=1;jettySize=auto;html=1;entryX=1;entryY=1;entryDx=0;entryDy=0;labelBackgroundColor=default;strokeColor=#ff0000;align=center;verticalAlign=bottom;fontFamily=Helvetica;fontSize=11;fontColor=default;endArrow=open;endSize=8;" parent="1" source="eVYh1uiRroW0jwpEOYDS-122" target="eVYh1uiRroW0jwpEOYDS-107" edge="1">
          <mxGeometry relative="1" as="geometry" />
        </mxCell>
        <mxCell id="eVYh1uiRroW0jwpEOYDS-122" value="Delete Me" style="rounded=1;whiteSpace=wrap;html=1;arcSize=40;fontColor=#000000;fillColor=#ffffc0;strokeColor=#ff0000;fontFamily=Helvetica;fontSize=11;" parent="1" vertex="1">
          <mxGeometry x="153" y="-270" width="120" height="40" as="geometry" />
        </mxCell>
        <mxCell id="eVYh1uiRroW0jwpEOYDS-129" value="" style="edgeStyle=none;shape=connector;rounded=0;orthogonalLoop=1;jettySize=auto;html=1;labelBackgroundColor=default;strokeColor=#ff0000;align=center;verticalAlign=bottom;fontFamily=Helvetica;fontSize=11;fontColor=default;endArrow=none;endSize=8;endFill=0;" parent="1" source="eVYh1uiRroW0jwpEOYDS-126" target="eVYh1uiRroW0jwpEOYDS-128" edge="1">
          <mxGeometry relative="1" as="geometry" />
        </mxCell>
        <mxCell id="eVYh1uiRroW0jwpEOYDS-126" value="Follow" style="rounded=1;whiteSpace=wrap;html=1;arcSize=40;fontColor=#000000;fillColor=#ffffc0;strokeColor=#ff0000;fontFamily=Helvetica;fontSize=11;" parent="1" vertex="1">
          <mxGeometry x="367" y="-211" width="120" height="40" as="geometry" />
        </mxCell>
        <mxCell id="eVYh1uiRroW0jwpEOYDS-130" style="edgeStyle=none;shape=connector;rounded=0;orthogonalLoop=1;jettySize=auto;html=1;labelBackgroundColor=default;strokeColor=#ff0000;align=center;verticalAlign=bottom;fontFamily=Helvetica;fontSize=11;fontColor=default;endArrow=none;endSize=8;endFill=0;" parent="1" source="eVYh1uiRroW0jwpEOYDS-128" target="eVYh1uiRroW0jwpEOYDS-116" edge="1">
          <mxGeometry relative="1" as="geometry" />
        </mxCell>
        <mxCell id="eVYh1uiRroW0jwpEOYDS-128" value="Unfollow" style="whiteSpace=wrap;html=1;fontSize=11;fillColor=#ffffc0;strokeColor=#ff0000;fontColor=#000000;rounded=1;arcSize=40;" parent="1" vertex="1">
          <mxGeometry x="604.5" y="-221" width="120" height="60" as="geometry" />
        </mxCell>
        <mxCell id="1aLMc1D5CUlpqfS6yJl3-2" value="Authors" style="rounded=1;whiteSpace=wrap;html=1;arcSize=40;fontColor=#000000;fillColor=#ffffc0;strokeColor=#ff0000;" vertex="1" parent="1">
          <mxGeometry x="590" y="-448" width="120" height="40" as="geometry" />
        </mxCell>
        <mxCell id="1aLMc1D5CUlpqfS6yJl3-6" value="Legend" style="swimlane;fontStyle=0;childLayout=stackLayout;horizontal=1;startSize=30;horizontalStack=0;resizeParent=1;resizeParentMax=0;resizeLast=0;collapsible=1;marginBottom=0;whiteSpace=wrap;html=1;fontFamily=Helvetica;fontSize=11;fontColor=default;movable=1;resizable=1;rotatable=1;deletable=1;editable=1;locked=0;connectable=1;" vertex="1" parent="1">
          <mxGeometry x="16" y="-1154" width="139" height="250" as="geometry" />
        </mxCell>
        <mxCell id="1aLMc1D5CUlpqfS6yJl3-7" value="Start" style="text;strokeColor=none;fillColor=none;align=left;verticalAlign=middle;spacingLeft=4;spacingRight=4;overflow=hidden;points=[[0,0.5],[1,0.5]];portConstraint=eastwest;rotatable=1;whiteSpace=wrap;html=1;fontSize=11;fontFamily=Helvetica;fontColor=default;movable=1;resizable=1;deletable=1;editable=1;locked=0;connectable=1;" vertex="1" parent="1aLMc1D5CUlpqfS6yJl3-6">
          <mxGeometry y="30" width="139" height="54" as="geometry" />
        </mxCell>
        <mxCell id="1aLMc1D5CUlpqfS6yJl3-8" value="End" style="text;strokeColor=none;fillColor=none;align=left;verticalAlign=middle;spacingLeft=4;spacingRight=4;overflow=hidden;points=[[0,0.5],[1,0.5]];portConstraint=eastwest;rotatable=1;whiteSpace=wrap;html=1;fontSize=11;fontFamily=Helvetica;fontColor=default;movable=1;resizable=1;deletable=1;editable=1;locked=0;connectable=1;" vertex="1" parent="1aLMc1D5CUlpqfS6yJl3-6">
          <mxGeometry y="84" width="139" height="56" as="geometry" />
        </mxCell>
        <mxCell id="1aLMc1D5CUlpqfS6yJl3-9" value="Activity" style="text;strokeColor=none;fillColor=none;align=left;verticalAlign=middle;spacingLeft=4;spacingRight=4;overflow=hidden;points=[[0,0.5],[1,0.5]];portConstraint=eastwest;rotatable=1;whiteSpace=wrap;html=1;fontSize=11;fontFamily=Helvetica;fontColor=default;movable=1;resizable=1;deletable=1;editable=1;locked=0;connectable=1;" vertex="1" parent="1aLMc1D5CUlpqfS6yJl3-6">
          <mxGeometry y="140" width="139" height="50" as="geometry" />
        </mxCell>
        <mxCell id="1aLMc1D5CUlpqfS6yJl3-10" value="Condition" style="text;strokeColor=none;fillColor=none;align=left;verticalAlign=middle;spacingLeft=4;spacingRight=4;overflow=hidden;points=[[0,0.5],[1,0.5]];portConstraint=eastwest;rotatable=1;whiteSpace=wrap;html=1;fontSize=11;fontFamily=Helvetica;fontColor=default;movable=1;resizable=1;deletable=1;editable=1;locked=0;connectable=1;" vertex="1" parent="1aLMc1D5CUlpqfS6yJl3-6">
          <mxGeometry y="190" width="139" height="60" as="geometry" />
        </mxCell>
        <mxCell id="1aLMc1D5CUlpqfS6yJl3-11" value="" style="ellipse;html=1;shape=startState;fillColor=#000000;strokeColor=#ff0000;fontFamily=Helvetica;fontSize=11;fontColor=default;movable=1;resizable=1;rotatable=1;deletable=1;editable=1;locked=0;connectable=1;" vertex="1" parent="1">
          <mxGeometry x="96" y="-1114" width="28" height="30" as="geometry" />
        </mxCell>
        <mxCell id="1aLMc1D5CUlpqfS6yJl3-12" value="" style="ellipse;html=1;shape=endState;fillColor=#000000;strokeColor=#ff0000;fontFamily=Helvetica;fontSize=11;fontColor=default;movable=1;resizable=1;rotatable=1;deletable=1;editable=1;locked=0;connectable=1;" vertex="1" parent="1">
          <mxGeometry x="94" y="-1057" width="30" height="30" as="geometry" />
        </mxCell>
        <mxCell id="1aLMc1D5CUlpqfS6yJl3-13" value="Activity" style="rounded=1;whiteSpace=wrap;html=1;arcSize=40;fontColor=#000000;fillColor=#ffffc0;strokeColor=#ff0000;fontFamily=Helvetica;fontSize=11;movable=1;resizable=1;rotatable=1;deletable=1;editable=1;locked=0;connectable=1;" vertex="1" parent="1">
          <mxGeometry x="80.5" y="-1004" width="57" height="21" as="geometry" />
        </mxCell>
        <mxCell id="1aLMc1D5CUlpqfS6yJl3-14" value="Condition" style="rhombus;whiteSpace=wrap;html=1;fontColor=#000000;fillColor=#ffffc0;strokeColor=#ff0000;fontFamily=Helvetica;fontSize=11;movable=1;resizable=1;rotatable=1;deletable=1;editable=1;locked=0;connectable=1;" vertex="1" parent="1">
          <mxGeometry x="74" y="-955" width="80" height="40" as="geometry" />
        </mxCell>
      </root>
    </mxGraphModel>
  </diagram>
</mxfile>
